<?xml version="1.0" encoding="UTF-8"?>
<svg xmlns="http://www.w3.org/2000/svg" xmlns:xlink="http://www.w3.org/1999/xlink" width="20pt" height="22pt" viewBox="0 0 20 22" version="1.1">
<g id="surface1">
<path style=" stroke:none;fill-rule:nonzero;fill:rgb(0%,0%,0%);fill-opacity:1;" d="M 20 15.46875 L 20 1.03125 C 20 0.460938 19.523438 0 18.929688 0 L 4.285156 0 C 1.917969 0 0 1.847656 0 4.125 L 0 17.875 C 0 20.152344 1.917969 22 4.285156 22 L 18.929688 22 C 19.523438 22 20 21.539062 20 20.96875 L 20 20.28125 C 20 19.960938 19.84375 19.667969 19.601562 19.476562 C 19.414062 18.816406 19.414062 16.929688 19.601562 16.269531 C 19.84375 16.082031 20 15.789062 20 15.46875 Z M 5.714844 5.757812 C 5.714844 5.617188 5.835938 5.5 5.980469 5.5 L 15.445312 5.5 C 15.59375 5.5 15.714844 5.617188 15.714844 5.757812 L 15.714844 6.617188 C 15.714844 6.757812 15.59375 6.875 15.445312 6.875 L 5.980469 6.875 C 5.835938 6.875 5.714844 6.757812 5.714844 6.617188 Z M 5.714844 8.507812 C 5.714844 8.367188 5.835938 8.25 5.980469 8.25 L 15.445312 8.25 C 15.59375 8.25 15.714844 8.367188 15.714844 8.507812 L 15.714844 9.367188 C 15.714844 9.507812 15.59375 9.625 15.445312 9.625 L 5.980469 9.625 C 5.835938 9.625 5.714844 9.507812 5.714844 9.367188 Z M 17.027344 19.25 L 4.285156 19.25 C 3.496094 19.25 2.855469 18.636719 2.855469 17.875 C 2.855469 17.117188 3.5 16.5 4.285156 16.5 L 17.027344 16.5 C 16.941406 17.234375 16.941406 18.515625 17.027344 19.25 Z M 17.027344 19.25 "/>
</g>
</svg>
