<?xml version="1.0" encoding="UTF-8"?>
<svg xmlns="http://www.w3.org/2000/svg" xmlns:xlink="http://www.w3.org/1999/xlink" width="20pt" height="26pt" viewBox="0 0 20 26" version="1.1">
<g id="surface1">
<path style=" stroke:none;fill-rule:nonzero;fill:rgb(0%,0%,0%);fill-opacity:1;" d="M 19.636719 5.332031 L 14.535156 0.355469 C 14.300781 0.125 13.984375 0 13.652344 0 L 13.332031 0 L 13.332031 6.5 L 20 6.5 L 20 6.191406 C 20 5.871094 19.871094 5.5625 19.636719 5.332031 Z M 6.6875 17.0625 C 5.753906 17.0625 5 17.675781 5 18.433594 C 5 19.195312 5.761719 19.804688 6.691406 19.804688 C 7.625 19.804688 8.378906 19.191406 8.378906 18.433594 C 8.378906 17.675781 7.621094 17.0625 6.6875 17.0625 Z M 11.667969 6.90625 L 11.667969 0 L 8.355469 0 L 8.355469 1.625 L 6.6875 1.625 L 6.6875 0 L 1.25 0 C 0.558594 0 0 0.542969 0 1.21875 L 0 24.78125 C 0 25.457031 0.558594 26 1.25 26 L 18.75 26 C 19.441406 26 20 25.457031 20 24.78125 L 20 8.125 L 12.917969 8.125 C 12.230469 8.125 11.667969 7.578125 11.667969 6.90625 Z M 4.996094 1.625 L 6.660156 1.625 L 6.660156 3.25 L 4.996094 3.25 Z M 6.675781 21.125 C 4.949219 21.125 3.65625 19.582031 4 17.929688 L 5.019531 13 L 5.019531 11.375 L 6.6875 11.375 L 6.6875 9.75 L 5.019531 9.75 L 5.019531 8.125 L 6.6875 8.125 L 6.6875 6.5 L 5.019531 6.5 L 5.019531 4.875 L 6.6875 4.875 L 6.6875 3.25 L 8.355469 3.25 L 8.355469 4.875 L 6.6875 4.875 L 6.6875 6.5 L 8.355469 6.5 L 8.355469 8.125 L 6.6875 8.125 L 6.6875 9.75 L 8.355469 9.75 L 8.355469 11.375 L 6.6875 11.375 L 6.6875 13 L 7.839844 13 C 8.136719 13 8.394531 13.207031 8.453125 13.492188 L 9.355469 17.945312 C 9.6875 19.589844 8.394531 21.125 6.675781 21.125 Z M 6.675781 21.125 "/>
</g>
</svg>
